<?xml version="1.0" encoding="UTF-8"?>
<!DOCTYPE svg PUBLIC "-//W3C//DTD SVG 1.1//EN" "http://www.w3.org/Graphics/SVG/1.1/DTD/svg11.dtd">
<!-- Creator: CorelDRAW -->
<svg xmlns="http://www.w3.org/2000/svg" xml:space="preserve" width="2048px" height="2048px" style="shape-rendering:geometricPrecision; text-rendering:geometricPrecision; image-rendering:optimizeQuality; fill-rule:evenodd; clip-rule:evenodd"
viewBox="0 0 2048 2048"
 xmlns:xlink="http://www.w3.org/1999/xlink">
 <defs>
  <style type="text/css">
   <![CDATA[
    .fil2 {fill:none}
    .fil1 {fill:#00ACC1}
    .fil14 {fill:#3B2623}
    .fil10 {fill:#3E2723}
    .fil13 {fill:#47302B}
    .fil0 {fill:#4DD0E1}
    .fil9 {fill:#4E342E}
    .fil8 {fill:#00695C;fill-rule:nonzero}
    .fil12 {fill:#0E564C;fill-rule:nonzero}
    .fil11 {fill:#6B9E99;fill-rule:nonzero}
    .fil7 {fill:#80CBC4;fill-rule:nonzero}
    .fil6 {fill:#929292;fill-rule:nonzero}
    .fil4 {fill:#9E9E9E;fill-rule:nonzero}
    .fil5 {fill:#ADADAD;fill-rule:nonzero}
    .fil3 {fill:#BDBDBD;fill-rule:nonzero}
   ]]>
  </style>
   <clipPath id="id0">
    <path d="M1024 0c565.539,0 1024,458.461 1024,1024 0,565.539 -458.461,1024 -1024,1024 -565.539,0 -1024,-458.461 -1024,-1024 0,-565.539 458.461,-1024 1024,-1024z"/>
   </clipPath>
 </defs>
 <g id="Layer_x0020_1">
  <metadata id="CorelCorpID_0Corel-Layer"/>
  <path class="fil0" d="M1024 0c565.539,0 1024,458.461 1024,1024 0,565.539 -458.461,1024 -1024,1024 -565.539,0 -1024,-458.461 -1024,-1024 0,-565.539 458.461,-1024 1024,-1024z"/>
  <g style="clip-path:url(#id0)">
   <g id="_478232440">
    <g>
     <polygon id="_3967984481" class="fil1" points="1111.72,1254.63 2247.6,2390.52 2101.62,2380.1 965.737,1244.22 "/>
     <path id="_396822088" class="fil1" d="M2397.86 2647.99l0 0zm-1135.88 -1135.88l0 0z"/>
     <polygon id="_396814456" class="fil1" points="1326.52,733.072 2462.41,1868.95 2481.47,1901.9 1345.59,766.013 "/>
     <polygon id="_396818248" class="fil1" points="1345.59,766.013 2481.47,1901.9 2482.33,1903.38 2483.04,1904.61 2483.64,1905.64 2484.14,1906.5 2484.57,1907.23 2484.95,1907.89 2485.31,1908.51 2485.68,1909.13 2486.07,1909.8 2486.52,1910.56 2487.04,1911.46 2487.66,1912.53 2488.42,1913.81 2489.32,1915.36 2490.4,1917.22 2491.68,1919.42 1355.8,783.538 1354.52,781.336 1353.44,779.482 1352.54,777.931 1351.78,776.643 1351.16,775.573 1350.63,774.677 1350.19,773.917 1349.8,773.246 1349.43,772.623 1349.07,772.006 1348.68,771.35 1348.26,770.614 1347.76,769.756 1347.16,768.731 1346.45,767.497 "/>
     <polygon id="_396805024" class="fil1" points="1355.8,783.538 2491.68,1919.42 2493.79,1923.04 2495.84,1926.58 2497.84,1930.02 2499.79,1933.39 2501.69,1936.67 2503.53,1939.87 2505.32,1942.99 2507.06,1946.03 2508.74,1949.01 2510.38,1951.91 2511.97,1954.75 2513.5,1957.52 2514.98,1960.22 2516.41,1962.87 2517.79,1965.46 2519.13,1967.98 2520.41,1970.46 2521.64,1972.88 2522.82,1975.26 2523.95,1977.58 2525.03,1979.87 2526.07,1982.11 2527.05,1984.31 2527.99,1986.47 2528.87,1988.59 2529.71,1990.69 2530.5,1992.75 2531.24,1994.78 2531.94,1996.79 2532.59,1998.78 2533.19,2000.74 2533.74,2002.68 1397.86,866.8 1397.3,864.856 1396.7,862.893 1396.06,860.91 1395.36,858.901 1394.62,856.867 1393.83,854.805 1392.99,852.712 1392.11,850.586 1391.17,848.423 1390.18,846.224 1389.15,843.985 1388.07,841.701 1386.94,839.375 1385.76,837.001 1384.53,834.577 1383.24,832.101 1381.91,829.573 1380.53,826.986 1379.1,824.342 1377.62,821.636 1376.08,818.866 1374.5,816.03 1372.86,813.126 1371.18,810.152 1369.44,807.105 1367.65,803.983 1365.8,800.783 1363.91,797.503 1361.96,794.141 1359.96,790.694 1357.91,787.16 "/>
     <polygon id="_396822280" class="fil1" points="1397.86,866.8 2533.74,2002.68 2533.95,2003.47 1398.07,867.59 "/>
     <polygon id="_396814696" class="fil1" points="1398.07,867.59 2533.95,2003.47 2534.32,2004.93 2534.67,2006.38 2534.99,2007.82 2535.28,2009.25 2535.54,2010.68 2535.78,2012.11 2536,2013.53 2536.18,2014.95 2536.34,2016.37 2536.48,2017.8 2536.59,2019.22 2536.67,2020.64 2536.73,2022.07 2536.76,2023.5 2536.76,2024.94 2536.74,2026.38 1400.86,890.495 1400.88,889.053 1400.88,887.617 1400.85,886.185 1400.79,884.759 1400.71,883.334 1400.6,881.913 1400.46,880.492 1400.3,879.072 1400.12,877.651 1399.9,876.227 1399.66,874.801 1399.4,873.37 1399.1,871.935 1398.79,870.494 1398.44,869.046 "/>
     <polygon id="_396811072" class="fil1" points="1400.86,890.495 2536.74,2026.38 2536.66,2028.52 2536.53,2030.65 2536.34,2032.75 2536.1,2034.84 2535.81,2036.92 2535.46,2038.99 2535.05,2041.05 2534.59,2043.12 2534.08,2045.19 2533.52,2047.26 2532.9,2049.34 2532.24,2051.44 2531.52,2053.55 2530.74,2055.68 2529.92,2057.84 2529.04,2060.02 2528.12,2062.24 2527.14,2064.49 2526.11,2066.78 2525.03,2069.11 2523.91,2071.48 2522.73,2073.9 2521.5,2076.37 2520.22,2078.9 2518.9,2081.49 2517.53,2084.14 2516.1,2086.86 2514.63,2089.64 2513.12,2092.5 2511.55,2095.44 2509.94,2098.46 2508.28,2101.56 1372.4,965.674 1374.06,962.574 1375.67,959.558 1377.23,956.622 1378.75,953.762 1380.22,950.976 1381.64,948.259 1383.02,945.609 1384.34,943.02 1385.62,940.491 1386.85,938.017 1388.02,935.596 1389.15,933.223 1390.23,930.894 1391.26,928.607 1392.23,926.357 1393.16,924.142 1394.04,921.959 1394.86,919.802 1395.63,917.669 1396.35,915.556 1397.02,913.459 1397.64,911.376 1398.2,909.303 1398.71,907.235 1399.17,905.17 1399.58,903.106 1399.93,901.035 1400.22,898.958 1400.46,896.868 1400.65,894.764 1400.78,892.64 "/>
     <polygon id="_396803008" class="fil1" points="1372.4,965.674 2508.28,2101.56 2507.46,2103.09 2506.62,2104.65 2505.78,2106.23 2504.92,2107.83 2504.05,2109.45 2503.17,2111.1 2502.28,2112.78 2501.38,2114.47 2500.47,2116.2 2499.54,2117.94 2498.61,2119.71 2497.66,2121.51 2496.71,2123.33 2495.74,2125.17 2494.76,2127.04 2493.78,2128.94 2492.78,2130.86 2491.77,2132.81 2490.76,2134.79 2489.73,2136.79 2488.69,2138.82 2487.65,2140.87 2486.59,2142.95 2485.53,2145.06 2484.46,2147.19 2483.38,2149.36 2482.29,2151.55 2481.19,2153.77 2480.08,2156.02 2478.97,2158.29 2477.84,2160.6 2476.71,2162.93 1340.83,1027.05 1341.96,1024.72 1343.09,1022.41 1344.2,1020.14 1345.31,1017.89 1346.41,1015.67 1347.5,1013.48 1348.58,1011.31 1349.65,1009.18 1350.71,1007.07 1351.77,1004.99 1352.81,1002.93 1353.85,1000.9 1354.87,998.904 1355.89,996.929 1356.9,994.981 1357.9,993.059 1358.88,991.162 1359.86,989.291 1360.83,987.446 1361.78,985.626 1362.73,983.831 1363.66,982.06 1364.59,980.313 1365.5,978.592 1366.4,976.895 1367.29,975.222 1368.17,973.572 1369.04,971.946 1369.9,970.344 1370.74,968.763 1371.58,967.208 "/>
     <polygon id="_396796768" class="fil1" points="1340.83,1027.05 2476.71,2162.93 2412.72,2295.31 1276.84,1159.43 "/>
     <polygon id="_396798136" class="fil1" points="1276.84,1159.43 2412.72,2295.31 2412.39,2296 1276.5,1160.11 "/>
     <polygon id="_396817096" class="fil1" points="1276.5,1160.11 2412.39,2296 2561.41,2553.49 1425.53,1417.6 "/>
     <polygon id="_396799168" class="fil1" points="1425.53,1417.6 2561.41,2553.49 2561.62,2553.86 2561.83,2554.23 2562.04,2554.6 2562.24,2554.97 2562.44,2555.34 2562.64,2555.71 2562.84,2556.09 2563.04,2556.46 1427.16,1420.58 1426.96,1420.21 1426.76,1419.83 1426.56,1419.46 1426.36,1419.09 1426.16,1418.71 1425.95,1418.34 1425.74,1417.97 "/>
     <polygon id="_396796456" class="fil1" points="1427.16,1420.58 2563.04,2556.46 2563.84,2558.05 2564.59,2559.65 2565.31,2561.26 2565.98,2562.87 2566.62,2564.5 2567.21,2566.14 2567.76,2567.78 2568.27,2569.43 2568.74,2571.09 2569.17,2572.76 2569.56,2574.43 2569.9,2576.1 2570.21,2577.78 2570.48,2579.46 2570.71,2581.15 2570.9,2582.84 2571.05,2584.52 2571.17,2586.21 2571.24,2587.9 2571.27,2589.59 2571.27,2591.27 2571.23,2592.96 2571.15,2594.64 2571.03,2596.32 2570.88,2597.99 2570.68,2599.66 2570.45,2601.32 2570.19,2602.97 2569.88,2604.62 2569.54,2606.26 2569.16,2607.9 2568.75,2609.52 1432.87,1473.64 1433.28,1472.02 1433.66,1470.38 1434,1468.74 1434.3,1467.09 1434.57,1465.44 1434.8,1463.77 1435,1462.11 1435.15,1460.43 1435.27,1458.76 1435.35,1457.08 1435.39,1455.39 1435.39,1453.71 1435.36,1452.02 1435.28,1450.33 1435.17,1448.64 1435.02,1446.95 1434.83,1445.27 1434.6,1443.58 1434.33,1441.9 1434.02,1440.22 1433.68,1438.55 1433.29,1436.88 1432.86,1435.21 1432.39,1433.55 1431.88,1431.9 1431.33,1430.26 1430.74,1428.62 1430.1,1426.99 1429.43,1425.37 1428.71,1423.76 1427.96,1422.17 "/>
     <polygon id="_396798088" class="fil1" points="1432.87,1473.64 2568.75,2609.52 2568.27,2611.23 2567.75,2612.93 2567.2,2614.61 2566.6,2616.28 2565.96,2617.94 2565.28,2619.58 2564.56,2621.21 2563.8,2622.82 2563.01,2624.42 2562.17,2625.99 2561.29,2627.55 2560.38,2629.09 2559.43,2630.6 2558.44,2632.1 2557.41,2633.57 2556.35,2635.02 2555.25,2636.45 2554.11,2637.85 2552.93,2639.23 2551.72,2640.58 2550.47,2641.91 2549.18,2643.21 2547.86,2644.47 2546.5,2645.71 2545.11,2646.92 2543.68,2648.1 2542.21,2649.25 2540.71,2650.36 2539.18,2651.44 2537.61,2652.49 2536,2653.5 2534.37,2654.48 1398.49,1518.59 1400.12,1517.62 1401.73,1516.61 1403.3,1515.56 1404.83,1514.48 1406.33,1513.36 1407.79,1512.22 1409.22,1511.04 1410.62,1509.83 1411.98,1508.59 1413.3,1507.32 1414.58,1506.03 1415.84,1504.7 1417.05,1503.35 1418.23,1501.97 1419.36,1500.57 1420.47,1499.14 1421.53,1497.69 1422.56,1496.22 1423.55,1494.72 1424.5,1493.2 1425.41,1491.67 1426.29,1490.11 1427.12,1488.53 1427.92,1486.94 1428.68,1485.33 1429.4,1483.7 1430.08,1482.06 1430.72,1480.4 1431.31,1478.73 1431.87,1477.05 1432.39,1475.35 "/>
     <polygon id="_396826504" class="fil1" points="1113.03,1254.73 2248.91,2390.61 2247.6,2390.52 1111.72,1254.63 "/>
     <polygon id="_396797128" class="fil1" points="1380.19,1529.18 2516.07,2665.07 2498.84,2675.03 1362.96,1539.15 "/>
     <polygon id="_396803776" class="fil1" points="1362.96,1539.15 2498.84,2675.03 2497.19,2675.96 2495.52,2676.84 2493.84,2677.68 2492.15,2678.46 2490.44,2679.2 2488.73,2679.9 2487,2680.54 2485.27,2681.15 2483.52,2681.7 2481.77,2682.21 2480.01,2682.68 2478.25,2683.1 2476.48,2683.47 2474.7,2683.81 2472.93,2684.09 2471.14,2684.33 2469.36,2684.53 2467.58,2684.69 2465.79,2684.8 2464.01,2684.87 2462.22,2684.89 2460.44,2684.87 2458.66,2684.81 2456.89,2684.7 2455.11,2684.56 2453.35,2684.37 2451.59,2684.14 2449.84,2683.87 2448.09,2683.55 2446.35,2683.2 2444.63,2682.8 2442.91,2682.37 1307.03,1546.48 1308.74,1546.92 1310.47,1547.32 1312.21,1547.67 1313.95,1547.98 1315.71,1548.26 1317.47,1548.49 1319.23,1548.68 1321,1548.82 1322.78,1548.93 1324.56,1548.99 1326.34,1549.01 1328.13,1548.98 1329.91,1548.92 1331.7,1548.8 1333.48,1548.65 1335.26,1548.45 1337.04,1548.21 1338.82,1547.92 1340.6,1547.59 1342.37,1547.22 1344.13,1546.8 1345.89,1546.33 1347.64,1545.82 1349.39,1545.26 1351.12,1544.66 1352.85,1544.01 1354.56,1543.32 1356.27,1542.58 1357.96,1541.79 1359.64,1540.96 1361.31,1540.08 "/>
     <polygon id="_396813808" class="fil1" points="1307.03,1546.48 2442.91,2682.37 2441.29,2681.92 2439.68,2681.43 2438.08,2680.9 2436.49,2680.34 2434.91,2679.75 2433.35,2679.12 2431.8,2678.45 2430.27,2677.75 2428.75,2677.01 2427.25,2676.24 2425.76,2675.43 2424.29,2674.59 2422.84,2673.72 2421.41,2672.81 2420,2671.87 2418.6,2670.89 2417.23,2669.88 2415.88,2668.84 2414.55,2667.76 2413.25,2666.65 2411.96,2665.51 2410.7,2664.33 1274.82,1528.45 1276.08,1529.63 1277.36,1530.77 1278.67,1531.88 1280,1532.95 1281.35,1534 1282.72,1535.01 1284.12,1535.98 1285.53,1536.93 1286.96,1537.84 1288.41,1538.71 1289.88,1539.55 1291.37,1540.36 1292.87,1541.13 1294.39,1541.87 1295.92,1542.57 1297.47,1543.23 1299.03,1543.86 1300.61,1544.46 1302.19,1545.02 1303.79,1545.54 1305.4,1546.03 "/>
     <polygon id="_396815152" class="fil1" points="1398.49,1518.59 2534.37,2654.48 2516.07,2665.07 1380.19,1529.18 "/>
     <path id="_396824032" class="fil1" d="M2498.84 2675.03l0 0zm-1135.88 -1135.88l0 0z"/>
     <polygon id="_396813880" class="fil1" points="965.737,1244.22 2101.62,2380.1 2098.99,2379.92 2096.4,2379.74 2093.84,2379.57 2091.31,2379.41 2088.81,2379.26 2086.34,2379.11 2083.91,2378.97 2081.51,2378.83 2079.13,2378.7 2076.79,2378.58 2074.48,2378.46 2072.2,2378.34 2069.95,2378.24 2067.74,2378.13 2065.55,2378.03 2063.39,2377.94 2061.25,2377.85 2059.15,2377.77 2057.08,2377.68 2055.03,2377.61 2053.02,2377.53 2051.03,2377.46 2049.07,2377.39 2047.13,2377.33 2045.23,2377.26 2043.35,2377.2 2041.49,2377.15 2039.67,2377.09 2037.87,2377.03 2036.1,2376.98 2034.35,2376.93 2032.63,2376.87 896.744,1240.99 898.466,1241.04 900.214,1241.1 901.987,1241.15 903.787,1241.2 905.613,1241.26 907.465,1241.32 909.346,1241.38 911.252,1241.44 913.185,1241.51 915.146,1241.58 917.135,1241.65 919.151,1241.72 921.197,1241.8 923.27,1241.88 925.372,1241.97 927.504,1242.06 929.664,1242.15 931.854,1242.25 934.073,1242.35 936.323,1242.46 938.603,1242.57 940.912,1242.69 943.253,1242.82 945.624,1242.95 948.027,1243.08 950.461,1243.22 952.927,1243.37 955.424,1243.53 957.954,1243.69 960.516,1243.86 963.111,1244.04 "/>
     <polygon id="_396816712" class="fil1" points="896.744,1240.99 2032.63,2376.87 2029.11,2376.77 2025.7,2376.67 2022.37,2376.56 2019.14,2376.45 2015.99,2376.34 2012.93,2376.22 2009.95,2376.09 2007.05,2375.95 2004.22,2375.8 2001.46,2375.63 1998.78,2375.44 1996.16,2375.24 1993.61,2375.01 1991.11,2374.76 1988.68,2374.49 1986.29,2374.19 1983.97,2373.86 1981.69,2373.5 1979.45,2373.11 1977.26,2372.68 1975.11,2372.22 1973,2371.72 1970.92,2371.17 1968.88,2370.59 1966.86,2369.95 1964.87,2369.28 1962.9,2368.55 1960.96,2367.77 1959.02,2366.94 1957.11,2366.06 1955.2,2365.11 1953.3,2364.11 817.423,1228.23 819.32,1229.23 821.226,1230.17 823.143,1231.06 825.074,1231.89 827.022,1232.67 828.99,1233.39 830.981,1234.07 832.998,1234.7 835.044,1235.29 837.121,1235.83 839.233,1236.34 841.383,1236.8 843.572,1237.23 845.806,1237.62 848.085,1237.98 850.413,1238.31 852.794,1238.61 855.23,1238.88 857.724,1239.13 860.279,1239.35 862.898,1239.56 865.582,1239.74 868.338,1239.91 871.164,1240.07 874.067,1240.21 877.048,1240.34 880.111,1240.46 883.257,1240.57 886.491,1240.68 889.815,1240.78 893.232,1240.89 "/>
     <polygon id="_396821944" class="fil1" points="817.423,1228.23 1953.3,2364.11 1952,2363.39 1950.72,2362.64 1949.45,2361.88 1948.2,2361.09 1946.97,2360.28 1945.75,2359.45 1944.55,2358.59 1943.37,2357.71 1942.19,2356.8 1941.03,2355.87 1939.88,2354.91 1938.74,2353.93 1937.6,2352.91 1936.48,2351.87 800.598,1215.99 801.722,1217.03 802.855,1218.04 803.996,1219.03 805.147,1219.99 806.31,1220.92 807.485,1221.83 808.672,1222.71 809.873,1223.56 811.09,1224.4 812.321,1225.21 813.57,1225.99 814.835,1226.76 816.119,1227.51 "/>
     <polygon id="_396807856" class="fil1" points="1221.17,569.428 2357.05,1705.31 2366.3,1715.78 2375.32,1726.79 2384.1,1738.35 2392.61,1750.47 2400.86,1763.15 2408.83,1776.39 1272.95,640.505 1264.98,627.264 1256.73,614.588 1248.22,602.473 1239.44,590.912 1230.42,579.898 "/>
     <polygon id="_396813496" class="fil1" points="1272.95,640.505 2408.83,1776.39 2462.41,1868.95 1326.52,733.072 "/>
     <path id="_396797776" class="fil1" d="M2034.28 2450.51l0 0zm-1135.88 -1135.88l0 0z"/>
     <path id="_396800992" class="fil1" d="M1847.77 2520.78l0 0zm-1135.88 -1135.88l0 0z"/>
     <polygon id="_396804928" class="fil1" points="936.509,1339.99 2072.39,2475.87 2074.88,2478.25 2077.31,2480.7 2079.67,2483.19 2081.97,2485.74 2084.19,2488.33 2086.35,2490.98 2088.45,2493.67 2090.47,2496.41 2092.42,2499.2 2094.31,2502.02 2096.12,2504.89 2097.87,2507.8 2099.54,2510.75 2101.14,2513.74 2102.67,2516.76 2104.12,2519.81 2105.5,2522.9 2106.81,2526.02 2108.04,2529.17 972.158,1393.29 970.926,1390.14 969.62,1387.02 968.239,1383.93 966.785,1380.88 965.257,1377.85 963.657,1374.87 961.985,1371.92 960.242,1369.01 958.428,1366.14 956.542,1363.31 954.589,1360.53 952.565,1357.79 950.473,1355.1 948.313,1352.45 946.085,1349.85 943.79,1347.31 941.429,1344.81 939.001,1342.37 "/>
     <polygon id="_396821320" class="fil1" points="972.158,1393.29 2108.04,2529.17 2109.19,2532.35 2110.27,2535.55 2111.28,2538.78 2112.2,2542.03 2113.05,2545.31 2113.82,2548.61 2114.51,2551.92 2115.12,2555.26 2115.65,2558.61 2116.1,2561.98 2116.48,2565.36 2116.76,2568.76 2116.97,2572.17 2117.09,2575.58 2117.13,2579.01 2117.09,2582.44 2116.96,2585.87 2116.75,2589.31 2116.45,2592.75 2116.07,2596.19 2115.6,2599.64 2115.04,2603.08 2114.4,2606.51 2113.67,2609.94 2112.84,2613.37 2111.93,2616.79 2110.93,2620.19 2109.84,2623.59 2108.66,2626.97 2107.38,2630.34 2106.02,2633.7 2104.56,2637.04 968.678,1501.16 970.137,1497.82 971.502,1494.46 972.777,1491.09 973.959,1487.71 975.05,1484.31 976.052,1480.9 976.963,1477.49 977.785,1474.06 978.518,1470.63 979.163,1467.19 979.719,1463.75 980.191,1460.31 980.573,1456.87 980.871,1453.43 981.083,1449.99 981.211,1446.55 981.254,1443.12 981.213,1439.7 981.089,1436.28 980.883,1432.88 980.594,1429.48 980.224,1426.1 979.772,1422.73 979.241,1419.38 978.629,1416.04 977.938,1412.73 977.169,1409.43 976.321,1406.15 975.395,1402.9 974.392,1399.67 973.313,1396.47 "/>
     <polygon id="_396826792" class="fil1" points="968.678,1501.16 2104.56,2637.04 2103.87,2638.55 2103.16,2640.05 2102.43,2641.54 2101.69,2643.02 2100.93,2644.48 2100.16,2645.93 2099.37,2647.37 2098.57,2648.8 2097.76,2650.21 2096.93,2651.61 2096.08,2653 2095.22,2654.38 2094.35,2655.74 2093.46,2657.1 2092.56,2658.44 2091.65,2659.76 2090.72,2661.07 2089.78,2662.37 2088.82,2663.66 2087.86,2664.94 2086.87,2666.2 2085.88,2667.44 2084.87,2668.68 2083.86,2669.9 2082.82,2671.11 2081.78,2672.3 2080.72,2673.48 2079.66,2674.65 2078.58,2675.8 2077.49,2676.94 2076.38,2678.07 2075.27,2679.18 939.387,1543.3 940.502,1542.19 941.604,1541.06 942.696,1539.92 943.776,1538.77 944.844,1537.6 945.9,1536.42 946.942,1535.22 947.975,1534.02 948.993,1532.8 949.999,1531.56 950.994,1530.31 951.974,1529.05 952.942,1527.78 953.897,1526.49 954.838,1525.19 955.766,1523.88 956.681,1522.55 957.582,1521.21 958.469,1519.86 959.342,1518.5 960.2,1517.12 961.045,1515.73 961.875,1514.33 962.691,1512.92 963.492,1511.49 964.279,1510.05 965.05,1508.6 965.807,1507.13 966.548,1505.66 967.274,1504.17 967.984,1502.67 "/>
     <polygon id="_396821344" class="fil1" points="939.387,1543.3 2075.27,2679.18 2073.93,2680.49 2072.58,2681.77 2071.21,2683.03 2069.83,2684.28 2068.43,2685.5 2067.02,2686.7 2065.59,2687.89 2064.15,2689.05 2062.7,2690.2 2061.23,2691.32 2059.74,2692.43 2058.25,2693.51 2056.74,2694.57 2055.22,2695.62 2053.68,2696.64 2052.14,2697.64 2050.58,2698.62 2049.01,2699.58 2047.43,2700.52 2045.83,2701.44 2044.23,2702.34 2042.61,2703.21 2040.98,2704.07 2039.35,2704.9 2037.7,2705.71 2036.04,2706.5 2034.37,2707.27 2032.7,2708.02 2031.01,2708.74 2029.31,2709.45 2027.61,2710.13 2025.9,2710.79 890.017,1574.9 891.729,1574.25 893.434,1573.56 895.13,1572.86 896.816,1572.14 898.494,1571.39 900.16,1570.62 901.818,1569.83 903.466,1569.02 905.103,1568.19 906.731,1567.33 908.346,1566.45 909.951,1565.56 911.545,1564.64 913.127,1563.7 914.698,1562.74 916.257,1561.76 917.803,1560.76 919.338,1559.74 920.859,1558.69 922.368,1557.63 923.864,1556.54 925.346,1555.44 926.815,1554.32 928.27,1553.17 929.711,1552.01 931.138,1550.82 932.551,1549.62 933.948,1548.39 935.331,1547.15 936.699,1545.89 938.05,1544.6 "/>
     <polygon id="_396802720" class="fil1" points="890.017,1574.9 2025.9,2710.79 2022.72,2711.94 2019.52,2713.02 2016.29,2714.02 2013.04,2714.95 2009.76,2715.8 2006.46,2716.57 2003.15,2717.26 1999.81,2717.87 1996.46,2718.4 1993.09,2718.85 1989.71,2719.22 1986.31,2719.51 1982.9,2719.72 1979.49,2719.84 1976.07,2719.88 1972.63,2719.84 1969.2,2719.71 1965.76,2719.5 1962.32,2719.2 1958.88,2718.82 1955.43,2718.35 1951.99,2717.79 1948.56,2717.14 1945.13,2716.41 1941.7,2715.59 1938.28,2714.68 1934.88,2713.68 1931.48,2712.59 1928.1,2711.4 1924.72,2710.13 1921.37,2708.76 1918.03,2707.3 782.15,1571.42 785.489,1572.88 788.844,1574.25 792.214,1575.52 795.598,1576.7 798.995,1577.79 802.403,1578.8 805.82,1579.71 809.245,1580.53 812.676,1581.26 816.113,1581.91 819.552,1582.46 822.994,1582.94 826.437,1583.32 829.879,1583.62 833.318,1583.83 836.754,1583.96 840.185,1584 843.609,1583.96 847.023,1583.84 850.43,1583.63 853.824,1583.34 857.207,1582.97 860.575,1582.52 863.929,1581.99 867.264,1581.38 870.582,1580.69 873.879,1579.92 877.155,1579.07 880.409,1578.14 883.638,1577.14 886.841,1576.06 "/>
     <polygon id="_396795904" class="fil1" points="782.15,1571.42 1918.03,2707.3 1914.74,2705.76 1911.51,2704.15 1908.33,2702.47 1905.22,2700.71 1902.16,2698.88 1899.16,2696.99 1896.23,2695.03 1893.36,2693 1890.54,2690.91 1887.8,2688.76 1885.11,2686.55 749.23,1550.67 751.915,1552.88 754.664,1555.03 757.475,1557.12 760.348,1559.15 763.283,1561.11 766.279,1563 769.334,1564.83 772.45,1566.58 775.625,1568.27 778.858,1569.88 "/>
    </g>
    <path id="_478214992" class="fil1" d="M1362.96 1539.15l0 0zm-100.975 -27.0449l0 0zm64.5414 -779.034l19.0618 32.941c5.01378,8.66339 2.80512,4.78347 10.2142,17.5252 22.7528,39.1276 36.4134,62.6221 42.0567,83.2619l0.209055 0.790158c2.05984,7.78938 2.97402,15.1937 2.79567,22.9051 -0.532678,23.0114 -10.513,41.6552 -28.4646,75.1784 -8.69528,16.239 -19.4551,36.3296 -31.565,61.376l-63.9945 132.377 -0.333071 0.687402 149.021 257.49c0.569292,0.983859 1.11378,1.97717 1.6311,2.97756 8.74961,16.8532 10.3205,35.7862 5.71182,53.0587 -4.87559,18.2799 -16.7327,34.7386 -34.3831,44.9528l-18.3 10.5898 -17.2276 9.96851c-17.5441,10.1504 -37.663,12.2067 -55.9323,7.33347 -17.3421,-4.62402 -33.0284,-15.4689 -43.3134,-31.5378 -0.594095,-0.927166 -1.16929,-1.87205 -1.72914,-2.84055l-148.956 -257.379 -1.30512 -0.0933072 -145.984 -10.4126c-28.2,-2.00788 -50.7591,-2.68347 -68.993,-3.22914 -37.9902,-1.13504 -59.1178,-1.76693 -79.3217,-12.7618 -7.00512,-3.81142 -13.1457,-8.46733 -19.0512,-14.4059l-0.0625985 -0.0637796c-15.0862,-15.1914 -28.6595,-38.7567 -51.2504,-77.9788l-10.1764 -17.641 -36.4807 -63.0284 -36.1548 -62.4768c-83.4674,-144.227 -57.7619,-282.499 20.1532,-381.715 30.039,-38.2524 67.8886,-70.5934 110.225,-95.0942 0.124016,-0.0720473 0.249213,-0.144095 0.373229,-0.216142 42.1229,-24.3166 88.8603,-40.9134 136.93,-47.8926 124.824,-18.1217 257.521,28.5012 341.022,172.787l53.5737 92.5666zm-428.123 581.558l0 0zm-186.514 70.2674l0 0zm78.6603 -73.7505c33.724,-12.7252 72.3414,-12.5717 107.864,3.4878 35.4177,16.0122 61.0075,44.8996 73.7457,78.6556 12.7276,33.7288 12.574,72.3508 -3.47953,107.865 -7.3252,16.2012 -17.3433,30.3473 -29.2914,42.1453 -14.1709,13.9961 -31.0524,24.6933 -49.3701,31.604 -33.7276,12.7287 -72.3508,12.5728 -107.867,-3.48307 -35.4201,-16.0169 -61.0123,-44.9067 -73.7481,-78.6638 -12.7252,-33.7264 -12.5705,-72.3461 3.49016,-107.871 8.03386,-17.7685 19.311,-33.0626 32.8134,-45.502 13.4126,-12.3543 29.0233,-21.8917 45.8422,-28.2378z"/>
   </g>
  </g>
  <path class="fil2" d="M1024 0c565.539,0 1024,458.461 1024,1024 0,565.539 -458.461,1024 -1024,1024 -565.539,0 -1024,-458.461 -1024,-1024 0,-565.539 458.461,-1024 1024,-1024z"/>
  <path class="fil3" d="M711.888 1384.9l0.00472441 -0.0106299c16.0146,-35.4154 44.902,-61.0028 78.6556,-73.7398 33.724,-12.7252 72.3426,-12.5717 107.854,3.48307l0.0106299 0.00472441c35.4177,16.0122 61.0075,44.8996 73.7469,78.6568 12.7264,33.7276 12.5728,72.3485 -3.48071,107.863 -16.0134,35.4201 -44.902,61.0134 -78.6603,73.7505 -33.7288,12.7287 -72.3532,12.5717 -107.868,-3.48307 -35.4201,-16.0169 -61.0123,-44.9067 -73.7481,-78.6638 -12.7264,-33.7264 -12.5705,-72.3461 3.48544,-107.861z"/>
  <path class="fil4" d="M805.583 1414.98l0 -0.0011811c1.73504,-3.83622 4.86496,-6.60827 8.52048,-7.9878 3.65433,-1.37835 7.8378,-1.36181 11.6847,0.376772l0.0011811 0.0011811c3.8374,1.73386 6.60945,4.86378 7.98898,8.52048 1.37835,3.65433 1.36181,7.8378 -0.376772,11.6858 -1.73504,3.8374 -4.86496,6.60945 -8.52166,7.98898 -3.65433,1.37953 -7.8378,1.36181 -11.6858,-0.376772 -3.8374,-1.73504 -6.60945,-4.86496 -7.98898,-8.52166 -1.37835,-3.65433 -1.36181,-7.8378 0.377953,-11.6858z"/>
  <path class="fil4" d="M764.029 1371.45l0.0011811 -0.0011811c1.73504,-3.83622 4.86378,-6.60827 8.52048,-7.9878 3.65315,-1.37953 7.8378,-1.36181 11.6847,0.376772l0.0011811 0c3.83622,1.73504 6.60827,4.86496 7.98898,8.52166 1.37835,3.65433 1.36181,7.8378 -0.376772,11.6858 -1.73504,3.83622 -4.86496,6.60945 -8.52166,7.98898 -3.65433,1.37953 -7.83898,1.36181 -11.6858,-0.376772 -3.8374,-1.73622 -6.60945,-4.86496 -7.98898,-8.52284 -1.37953,-3.65315 -1.36181,-7.83662 0.376772,-11.6847z"/>
  <path class="fil4" d="M888.689 1502.03l0.0011811 -0.0011811c1.73504,-3.83622 4.86378,-6.60827 8.52048,-7.9878 3.65433,-1.37953 7.8378,-1.36181 11.6847,0.376772l0.0011811 0c3.83622,1.73504 6.60945,4.86496 7.98898,8.52166 1.37835,3.65433 1.36181,7.8378 -0.376772,11.6847 -1.73504,3.8374 -4.86496,6.61064 -8.52166,7.99016 -3.65433,1.37835 -7.8378,1.36181 -11.6858,-0.376772 -3.8374,-1.73622 -6.60945,-4.86496 -7.98898,-8.52284 -1.37953,-3.65315 -1.36181,-7.83662 0.376772,-11.6847z"/>
  <path class="fil4" d="M847.137 1458.51l0 -0.0011811c1.73504,-3.8374 4.86496,-6.60945 8.52166,-7.98898 3.65315,-1.37835 7.83662,-1.36181 11.6835,0.376772l0.0011811 0.0011811c3.8374,1.73504 6.60945,4.86378 7.98898,8.52048 1.37953,3.65433 1.36299,7.8378 -0.376772,11.6858 -1.73504,3.8374 -4.86378,6.60945 -8.52166,7.98898 -3.65315,1.37953 -7.8378,1.36299 -11.6858,-0.376772 -3.83622,-1.73504 -6.60945,-4.86496 -7.98898,-8.52166 -1.37835,-3.65433 -1.36181,-7.8378 0.377953,-11.6847z"/>
  <path class="fil4" d="M787.49 1474.38l0.0011811 -0.0011811c1.73504,-3.83622 4.86378,-6.60827 8.52048,-7.98898 3.65315,-1.37835 7.8378,-1.36181 11.6847,0.377953l0.0011811 0c3.83622,1.73504 6.60945,4.86496 7.98898,8.52166 1.37835,3.65315 1.36181,7.8378 -0.376772,11.6847 -1.73504,3.8374 -4.86496,6.61064 -8.52166,7.99016 -3.65433,1.37835 -7.8378,1.36181 -11.6858,-0.377953 -3.8374,-1.73504 -6.60945,-4.86496 -7.98898,-8.52166 -1.37953,-3.65315 -1.36181,-7.8378 0.376772,-11.6847z"/>
  <path class="fil4" d="M873.353 1392.4l0 0.0011811c-3.913,1.55433 -6.82796,4.55315 -8.3752,8.14134 -1.54606,3.58583 -1.72323,7.76575 -0.164173,11.6894l0 0.0011811c1.55551,3.913 4.55315,6.82678 8.14253,8.3752 3.58583,1.54606 7.76575,1.72323 11.6906,0.164173 3.913,-1.55551 6.82796,-4.55315 8.3752,-8.14253 1.54725,-3.58583 1.72323,-7.76694 0.164173,-11.6906 -1.55551,-3.913 -4.55315,-6.82796 -8.14253,-8.3752 -3.58583,-1.54606 -7.76575,-1.72323 -11.6906,-0.164173z"/>
  <path class="fil4" d="M745.936 1430.85l0.0011811 -0.0011811c1.73386,-3.8374 4.86378,-6.60945 8.52048,-7.98898 3.65315,-1.37835 7.83662,-1.36181 11.6847,0.377953l0.0011811 0c3.83622,1.73504 6.60827,4.86378 7.98898,8.52166 1.37835,3.65315 1.36181,7.8378 -0.377953,11.6847 -1.73386,3.8374 -4.86378,6.60945 -8.52048,7.99016 -3.65433,1.37835 -7.83898,1.36181 -11.6858,-0.377953 -3.8374,-1.73504 -6.60945,-4.86496 -7.99016,-8.52166 -1.37835,-3.65315 -1.36181,-7.8378 0.377953,-11.6847z"/>
  <path class="fil4" d="M831.799 1348.88l-0.0011811 0c-3.913,1.55551 -6.82678,4.55315 -8.37402,8.14253 -1.54606,3.58583 -1.72323,7.76575 -0.164173,11.6894l0 0c1.55551,3.91418 4.55315,6.82796 8.14253,8.37638 3.58583,1.54606 7.76575,1.72323 11.6894,0.164173 3.91418,-1.55551 6.82796,-4.55315 8.37638,-8.14253 1.54606,-3.58583 1.72323,-7.76694 0.164173,-11.6906 -1.55551,-3.913 -4.55315,-6.82796 -8.14253,-8.3752 -3.58583,-1.54725 -7.76694,-1.72323 -11.6906,-0.164173z"/>
  <path class="fil4" d="M829.045 1517.9l0 -0.0011811c1.73504,-3.83622 4.86496,-6.60827 8.52048,-7.9878 3.65433,-1.37953 7.8378,-1.36181 11.6847,0.376772l0.0011811 0.0011811c3.8374,1.73386 6.60945,4.86378 7.98898,8.52048 1.37953,3.65433 1.36181,7.8378 -0.376772,11.6858 -1.73504,3.83622 -4.86496,6.60945 -8.52166,7.98898 -3.65433,1.37953 -7.8378,1.36181 -11.6858,-0.376772 -3.8374,-1.73622 -6.60945,-4.86496 -7.98898,-8.52284 -1.37835,-3.65315 -1.36181,-7.83662 0.377953,-11.6847z"/>
  <path class="fil4" d="M914.907 1435.93l-0.0011811 0.0011811c-3.913,1.55551 -6.82678,4.55315 -8.3752,8.14134 -1.54606,3.58583 -1.72323,7.76575 -0.164173,11.6894l0.0011811 0.0011811c1.55433,3.913 4.55197,6.82678 8.14134,8.3752 3.58583,1.54606 7.76694,1.72323 11.6906,0.164173 3.913,-1.55433 6.82796,-4.55315 8.3752,-8.14253 1.54725,-3.58583 1.72441,-7.76575 0.164173,-11.6906 -1.55551,-3.913 -4.55315,-6.82796 -8.14253,-8.3752 -3.58583,-1.54606 -7.76575,-1.72323 -11.6894,-0.164173z"/>
  <path class="fil4" d="M765.434 1524.84l0.0011811 -0.0011811c1.73504,-3.83622 4.86378,-6.60827 8.52048,-7.98898 3.65315,-1.37835 7.8378,-1.36181 11.6847,0.377953l0.0011811 0c3.83622,1.73504 6.60945,4.86496 7.98898,8.52166 1.37835,3.65315 1.36181,7.8378 -0.376772,11.6847 -1.73504,3.8374 -4.86496,6.61064 -8.52166,7.99016 -3.65433,1.37835 -7.83898,1.36181 -11.6858,-0.377953 -3.8374,-1.73504 -6.60945,-4.86496 -7.98898,-8.52166 -1.37953,-3.65315 -1.36181,-7.8378 0.376772,-11.6847z"/>
  <path class="fil4" d="M924.781 1372.71l-0.0011811 0c-3.91181,1.55551 -6.82678,4.55315 -8.37402,8.14253 -1.54606,3.58465 -1.72323,7.76457 -0.164173,11.6882l0 0.0011811c1.55551,3.913 4.55315,6.82796 8.14253,8.3752 3.58583,1.54725 7.76575,1.72441 11.6906,0.165354 3.913,-1.55551 6.82678,-4.55315 8.3752,-8.14253 1.54606,-3.58583 1.72323,-7.76694 0.164173,-11.6906 -1.55551,-3.91418 -4.55315,-6.82796 -8.14253,-8.3752 -3.58583,-1.54725 -7.76575,-1.72323 -11.6906,-0.164173z"/>
  <path class="fil4" d="M723.88 1481.31l0.0011811 -0.0011811c1.73386,-3.8374 4.86378,-6.60945 8.52048,-7.98898 3.65315,-1.37835 7.83662,-1.36181 11.6847,0.377953l0 0c3.8374,1.73504 6.60945,4.86378 7.99016,8.52166 1.37835,3.65315 1.36181,7.8378 -0.377953,11.6847 -1.73386,3.8374 -4.86378,6.60945 -8.52048,7.99016 -3.65433,1.37835 -7.83898,1.36181 -11.6858,-0.377953 -3.8374,-1.73504 -6.60945,-4.86496 -7.99016,-8.52166 -1.37835,-3.65315 -1.36181,-7.8378 0.377953,-11.6847z"/>
  <path class="fil4" d="M883.228 1329.18l-0.0011811 0c-3.913,1.55551 -6.82678,4.55315 -8.37402,8.14134 -1.54606,3.58583 -1.72323,7.76575 -0.164173,11.6894l0 0.0011811c1.55551,3.913 4.55315,6.82796 8.14253,8.3752 3.58583,1.54725 7.76575,1.72441 11.6894,0.164173 3.91418,-1.55433 6.82796,-4.55197 8.37638,-8.14134 1.54606,-3.58701 1.72323,-7.76694 0.164173,-11.6906 -1.55551,-3.91418 -4.55433,-6.82796 -8.14253,-8.37638 -3.58583,-1.54606 -7.76694,-1.72323 -11.6906,-0.162992z"/>
  <path class="fil5" d="M711.888 1384.9l0.00472441 -0.0106299c8.03505,-17.7685 19.311,-33.0626 32.8146,-45.5008l194.68 203.915c-14.1709,13.9949 -31.0536,24.6933 -49.3689,31.604 -33.7288,12.7287 -72.3532,12.5717 -107.868,-3.48307 -35.4201,-16.0169 -61.0123,-44.9067 -73.7481,-78.6638 -12.7264,-33.7264 -12.5705,-72.3461 3.48544,-107.861z"/>
  <path class="fil6" d="M805.583 1414.98l0 0c1.19291,-2.63977 3.04607,-4.7752 5.27835,-6.3l20.8169 21.8043c-1.76693,2.34331 -4.14331,4.07953 -6.79961,5.08229 -3.65315,1.37717 -7.83662,1.36063 -11.6847,-0.379134 -3.83622,-1.73386 -6.60945,-4.86378 -7.98898,-8.52048 -1.37835,-3.65433 -1.36181,-7.8378 0.377953,-11.687z"/>
  <path class="fil6" d="M764.03 1371.45l0 0c1.1941,-2.63977 3.04607,-4.77638 5.27835,-6.30119l20.8169 21.8032c-1.76811,2.34449 -4.14331,4.07953 -6.79961,5.08229 -3.65315,1.37835 -7.83662,1.36181 -11.6847,-0.376772 -3.8374,-1.73504 -6.60945,-4.86496 -7.98898,-8.52284 -1.37953,-3.65433 -1.36299,-7.83662 0.377953,-11.6847z"/>
  <path class="fil6" d="M888.69 1502.03l0 0c1.1941,-2.63977 3.04607,-4.77638 5.27835,-6.30119l20.8169 21.8032c-1.76811,2.34449 -4.14331,4.07953 -6.79843,5.08347 -3.65433,1.37717 -7.8378,1.36063 -11.6858,-0.377953 -3.8374,-1.73504 -6.60945,-4.86496 -7.98898,-8.52284 -1.37835,-3.65315 -1.36181,-7.8378 0.377953,-11.6847z"/>
  <path class="fil6" d="M847.137 1458.5l0 0c1.1941,-2.63977 3.04725,-4.77638 5.27835,-6.30119l20.8169 21.8043c-1.76693,2.34331 -4.14331,4.07953 -6.79843,5.08229 -3.65433,1.37835 -7.8378,1.36063 -11.6858,-0.377953 -3.8374,-1.73504 -6.60945,-4.86496 -7.98898,-8.52166 -1.37835,-3.65433 -1.36181,-7.8378 0.377953,-11.6858z"/>
  <path class="fil6" d="M787.491 1474.38l0 0c1.73504,-3.83622 4.86378,-6.60827 8.52048,-7.9878 3.65433,-1.37953 7.8378,-1.36299 11.6858,0.376772l0 0.0011811c3.8374,1.73268 6.60827,4.8626 7.98898,8.52048 1.37953,3.65433 1.36181,7.8378 -0.376772,11.6858 -1.73504,3.8374 -4.86378,6.60945 -8.52284,7.99016 -3.65315,1.37717 -7.83662,1.35945 -11.6847,-0.379134 -3.8374,-1.73386 -6.60945,-4.86378 -7.98898,-8.52166 -1.37835,-3.65315 -1.36181,-7.83662 0.377953,-11.6858z"/>
  <path class="fil6" d="M745.936 1430.85l0 0c1.73504,-3.8374 4.86378,-6.60827 8.52166,-7.98898 3.65433,-1.37835 7.8378,-1.36181 11.6847,0.377953l0.0011811 0c3.8374,1.73504 6.60945,4.86378 7.98898,8.52166 1.37835,3.65433 1.36063,7.8378 -0.376772,11.6847 -1.73504,3.83859 -4.86496,6.60945 -8.52284,7.99016 -3.65315,1.37835 -7.83662,1.36181 -11.6858,-0.377953 -3.83622,-1.73386 -6.60945,-4.86496 -7.9878,-8.52166 -1.37953,-3.65433 -1.36181,-7.8378 0.376772,-11.6858z"/>
  <path class="fil6" d="M829.045 1517.9l0 0c1.73504,-3.83622 4.86378,-6.60827 8.52048,-7.98898 3.65433,-1.37835 7.8378,-1.36181 11.6847,0.377953l0.0011811 0.0011811c3.8374,1.73386 6.60945,4.8626 7.99016,8.52048 1.37717,3.65433 1.36063,7.83898 -0.377953,11.6847 -1.73504,3.83859 -4.86496,6.60945 -8.52284,7.99016 -3.65197,1.37953 -7.83662,1.36181 -11.6847,-0.376772 -3.83622,-1.73504 -6.60945,-4.86496 -7.98898,-8.52284 -1.37835,-3.65433 -1.36181,-7.83662 0.377953,-11.6858z"/>
  <path class="fil6" d="M765.435 1524.84l0 0c1.73386,-3.83622 4.86378,-6.60827 8.52048,-7.9878 3.65433,-1.37953 7.8378,-1.36299 11.6847,0.376772l0.0011811 0.0011811c3.8374,1.73268 6.60827,4.8626 7.98898,8.52048 1.37953,3.65433 1.36181,7.8378 -0.376772,11.6858 -1.73504,3.8374 -4.86378,6.60945 -8.52166,7.98898 -3.65433,1.37835 -7.8378,1.36063 -11.6858,-0.377953 -3.8374,-1.73504 -6.60945,-4.86496 -7.98898,-8.52048 -1.37835,-3.65433 -1.36181,-7.8378 0.377953,-11.687z"/>
  <path class="fil6" d="M723.88 1481.31l0.0011811 -0.0011811c1.73386,-3.83622 4.8626,-6.60709 8.52048,-7.9878 3.65433,-1.37835 7.8378,-1.36181 11.6847,0.377953l0.0011811 0c3.8374,1.73504 6.60945,4.86378 7.98898,8.52048 1.37835,3.65551 1.36063,7.83898 -0.376772,11.6858 -1.73622,3.83859 -4.86496,6.60945 -8.52166,7.98898 -3.65433,1.37953 -7.8378,1.36299 -11.687,-0.376772 -3.83622,-1.73386 -6.60945,-4.86496 -7.9878,-8.52166 -1.37953,-3.65433 -1.36299,-7.8378 0.376772,-11.6858z"/>
  <path class="fil7" d="M1398.07 867.59c2.05866,7.78938 2.97402,15.1937 2.79567,22.9051 -0.532678,23.0114 -10.513,41.654 -28.4646,75.1784 -8.69528,16.239 -19.4551,36.3296 -31.565,61.376l-64.3276 133.064 149.021 257.491c10.174,17.5784 12.2256,37.7362 7.34292,56.0351 -4.87559,18.2799 -16.7327,34.7386 -34.3831,44.9528l-35.5205 20.5547 -0.00590552 0.00354331c-17.5453,10.1504 -37.6642,12.2067 -55.9335,7.33347 -18.3425,-4.89213 -34.8343,-16.741 -45.0402,-34.3725l-0.00236221 -0.00590552 -148.956 -257.379 -147.291 -10.5059c-28.1988,-2.00906 -50.7579,-2.68229 -68.9906,-3.22914 -37.9914,-1.13504 -59.1189,-1.76693 -79.3229,-12.7606 -7.00512,-3.8126 -13.1457,-8.46969 -19.0512,-14.4071l599.695 -346.235z"/>
  <path class="fil8" d="M1272.95 640.506c17.7201,30.6047 35.6008,61.506 53.5725,92.5654l19.0618 32.941c5.01378,8.66339 2.80512,4.78347 10.2142,17.5252 22.7528,39.1276 36.4122,62.6209 42.0567,83.2619l0.209055 0.790158 -599.695 346.235 -0.0625985 -0.0625985c-15.0862,-15.1937 -28.6595,-38.7579 -51.2504,-77.98 -3.1878,-5.53583 -6.57284,-11.4106 -10.1764,-17.6398l-36.4807 -63.0296 -36.1548 -62.4768c-83.4674,-144.227 -57.7607,-282.499 20.1532,-381.715 30.039,-38.2524 67.8886,-70.5934 110.225,-95.0942 42.2197,-24.4347 89.0918,-41.1095 137.303,-48.1087 124.824,-18.1217 257.521,28.5012 341.023,172.788z"/>
  <path class="fil9" d="M1261.99 1512.11l0 0zm100.98 27.0355l0 0zm-252.495 -419.287l1.25197 134.773 1.30512 0.0933072 148.958 257.385c10.2059,17.6315 26.6977,29.4803 45.0402,34.3725 18.2693,4.87323 38.3882,2.81693 55.9394,-7.33701l35.5205 -20.5547c17.6504,-10.2142 29.5075,-26.6729 34.3831,-44.9528 4.88268,-18.2988 2.8311,-38.4567 -7.34292,-56.0351l-149.021 -257.491 0.333071 -0.688583 -116.81 -68.9079c-23.0103,-13.2839 -49.7433,8.89607 -49.5579,29.3433z"/>
  <path class="fil10" d="M1263.71 1514.95l163.443 -94.3642c8.74961,16.8532 10.3217,35.7851 5.71182,53.0587 -4.87559,18.2799 -16.7327,34.7386 -34.3831,44.9528l-35.5205 20.5547c-17.5512,10.1539 -37.6701,12.2102 -55.9394,7.33701 -17.341,-4.6252 -33.0272,-15.4701 -43.3122,-31.539zm99.2517 24.202l0 0z"/>
  <path class="fil11" d="M1380.19 1529.18l-17.2205 9.96497 -0.00590552 0.00354331c-17.5453,10.1504 -37.6642,12.2067 -55.9335,7.33347 -18.3425,-4.89213 -34.8343,-16.741 -45.0402,-34.3725l-0.00236221 -0.00590552 -148.956 -257.379 -147.291 -10.5059c-28.1988,-2.00906 -50.7579,-2.68229 -68.9906,-3.22914 -37.9914,-1.13504 -59.1189,-1.76693 -79.3229,-12.7606 -7.00512,-3.8126 -13.1457,-8.46969 -19.0512,-14.4071l299.807 -173.094 282.007 488.452z"/>
  <path class="fil12" d="M1098.18 1040.73l-299.807 173.094 -0.0625985 -0.0625985c-15.0862,-15.1937 -28.6595,-38.7579 -51.2504,-77.98 -3.1878,-5.53583 -6.57284,-11.4106 -10.1764,-17.6398l-36.4807 -63.0296 -36.1548 -62.4768c-83.4674,-144.227 -57.7607,-282.499 20.1532,-381.715 30.039,-38.2524 67.8886,-70.5934 110.225,-95.0942l0.375591 -0.216142 303.177 525.12z"/>
  <path class="fil13" d="M1261.99 1512.11l0 0zm-134.314 -420.298l252.514 437.368 -17.2205 9.96497c-17.5512,10.1539 -37.6701,12.2102 -55.9394,7.33701 -18.3425,-4.89213 -34.8343,-16.741 -45.0402,-34.3725l-148.958 -257.385 -1.30512 -0.0933072 -1.25197 -134.773c-0.0956694,-10.6193 7.07008,-21.7028 17.2016,-28.0465zm235.293 447.333l0 0z"/>
  <path class="fil14" d="M1263.71 1514.95l81.189 -46.8744 35.2831 61.1115 -17.2205 9.96497c-17.5512,10.1539 -37.6701,12.2102 -55.9394,7.33701 -17.341,-4.6252 -33.0272,-15.4701 -43.3122,-31.539zm99.2517 24.202l0 0z"/>
 </g>
</svg>
